<svg height="725" viewBox="0 6.514 2999.15 864.854" width="2500" xmlns="http://www.w3.org/2000/svg"><path d="m481.074 159.377c4.92-1.546 254.433 81.106 283.477 89.903l-.977 619.728h-102.155c-.423-27.484-.033-55.036-.046-82.527h-101.894l.435-85.149c.089-13.264-1.323-27.869.799-40.915 3.806-23.411 20.404-51.809 26.776-75.837 4.275-16.122 1.954-66.074 1.957-85.904-9.872-2.178-19.853-6.087-29.508-9.146-24.265-7.689-48.512-16.087-73.057-22.813-.083 18.969 2.477 69.231-1.155 84.459-3.678 15.42-11.924 31.399-17.988 46.121-3.367 7.875-8.143 16.734-9.39 25.21-1.327 9.014-.687 18.84-.652 27.954l.143 45.343c.055 57.522.852 115.194-.386 172.698l-246.363-.7-.072-82.04c-14.601-1.557-30.018-.569-44.738-.57l-84.043.029.316-96.604c-17.418 2.814-34.795 6.413-52.15 9.637-1.19-63.12.386-126.375.554-189.496-.31-87.811-.049-175.623.782-263.431 39.119-6.155 78.151-14.917 117.066-22.401l228.841-43.983c34.343-6.597 68.863-14.336 103.428-19.566zm-157.835 202.516 28.89 25.668 6.63 5.581c-.578-6.884-1.02-13.817-2.228-20.625 9.536-1.315 19.299-2.3 28.735-4.161l19.898 18.827c4.875-6.203 34.701-41.792 34.914-46.499l-1.734-.596c-16.839 4.444-34.571 6.93-51.691 10.163-21.041 3.974-42.212 8.668-63.414 11.642zm-154.845 68.166c5.712-6.812 34.237-38.155 35.426-44.106l-.15-.78c-22.156 4.933-44.728 8.549-67.059 12.69-16.074 2.981-32.356 6.822-48.556 8.76 9.382 8.204 18.659 16.574 28.177 24.616l6.287 5.455c-1.35-7.088-2.361-13.997-2.858-21.197a605.243 605.243 0 0 0 27.851-4.176zm110.164 160.19c-5.144-6.05-13.481-18.765-20.36-22.26-6.662 9.854-13.088 20.041-20.175 29.585 6.144-1.269 12.449-2.177 18.544-3.593 7.332-1.186 14.715-2.243 21.991-3.732zm839.272-282.809 57.39-.007c-4.28 8.501-8.67 16.946-13.17 25.331h166.8c-6.1 13.916-10.87 30.051-15.01 44.692l-173.87.02c-11.71 19.826-21.21 41.851-31.53 62.492l60.74.037v-47.492l58.16-.032v47.501l99.95.023c-6.7 13.484-11.19 29.104-16.8 43.157l-83.07.025c-.36 11.617-.03 23.338-.03 34.966l73.11.022 37.15.025c-5.15 15.147-10.99 30.063-15.82 45.317l-94.49.01v34.957c-19.29 6.353-39.17 11.568-58.08 18.979-.57-17.904-.06-36.012-.08-53.936h-130.7v-45.352h130.7l-.01-35.013h-121.32v-39.979c12.75-20.884 22.31-44.123 33.93-65.727h-41.99l-.04-44.692 64.4-.005c4.58-8.271 8.14-17.677 13.68-25.319zm491.96 145.699h253.24l.01 157.284h-253.27zm57.82 113.204h137.27l-.02-70.046h-137.01c-.87 23.276-.27 46.747-.24 70.046zm1147.85-332.682 56.41-.002c4.44 25.34 9.76 51.303 15.92 76.273h111.36c-5.92 16.174-11.66 32.636-16.76 49.086h-84.19c3.07 20.247 8.82 40.264 12.4 60.476 7.65-10.855 16.77-21.056 25.15-31.39l59.86.024c-24.7 29.298-47.53 63.339-71.46 93.847 3.45 26.003 11.02 52.315 16.18 78.107h26.6l2.27 11.696c3.34 7.855 5.7 26.662 7.34 35.834l-84.98-.076c-3.76-24.368-10.23-48.765-14.9-73.024l-28.47 34.333c-21.21.072-42.37-.357-63.57-.634 26.95-32.444 52.59-66.185 78.77-99.269-3.42-12.714-5.53-26.042-8.15-38.954l-14.27-70.97h-56.41v-49.048l46.83-.041c-6.98-24.802-9.81-51.159-15.93-76.268z"/><path d="m2612.57 249.897h166.34c.13 15.013 1.83 32.023-.71 46.779-2.4 13.984-13.65 39.132-19.02 53.696-11.59 31.405-22.08 63.99-35.33 94.697 5.5 11.182 9.9 23.233 14.73 34.73l32.44 77.326c6.59 15.786 12.71 32.002 20.23 47.355l-56.74.001c-14.81-32.053-26.93-65.474-40.98-97.886-6.62 20.747-16.04 41.356-24.03 61.656a1879.17 1879.17 0 0 0 -14.11 36.23h-55.45l63.28-159.169c-14.91-42.879-32.49-85.17-48.8-127.558h52.61c2.06 7.776 5.63 15.608 8.46 23.154l17.54 46.13c2.49-9.853 6.98-19.926 10.49-29.498l22.02-59.495h-112.97zm-440.24-15.628c18.64-.15 37.27-.092 55.91.171.97 9.699 3.74 19.135 4.5 28.902l48.5.047c-5.08 15.009-9.91 30.125-15.45 44.975h-74.39c.03 11.951-.78 24.015-1.22 35.964h76.23v262.657h-45.95v-217.945h-32.14c-2.28 28.474-2.17 57.767-3.27 86.338-1.56 40.112-4 80.391-4.64 120.516-16.39 4.785-33.11 12.953-49.05 19.232-.75-31.262 2.37-64.515 3.53-95.95l8.2-210.812h-16.45v-45.02l49.99-.002c-1.7-9.571-3.94-19.345-4.3-29.073zm-1050.49-2.815 65.18.003c2.38 7.103 4.32 14.346 6.34 21.558h141.95c-6.37 14.769-12.77 30.232-17.63 45.563-32.5 1.565-65.81.095-98.39.096l-198.33-.002v296.355c-18.97 8.44-39.139 14.267-58.146 22.726v-364.738h164.616c-2-7.088-4.41-14.289-5.59-21.561zm522.9 2.375c21.57-.743 43.33-.194 64.92-.17-3.54 6.857-7.54 13.541-11.32 20.274l171.27.027-.01 39.789c-28.74 26.541-59.66 51.615-89.66 76.774 12.3 6.729 24.13 15.445 35.92 23.087l70.73 45.698-92.66.045c-20.43-13.876-41.71-26.768-62.55-40.051-19.04 13.424-37.95 27.128-57.34 40.051l-87.87-.032c32.47-21.188 63.85-45.001 95.37-67.624l-42.1-28.151c-8.61-5.748-17.92-11.171-25.72-17.966h85.6c10.07 6.606 20.57 14.277 31.48 19.358l57.64-47.802-114.4-.031a771.774 771.774 0 0 0 -11.3 20.628l-64.77-.004a8388.042 8388.042 0 0 1 46.77-83.9zm-1136.21 261.454c20.706 5.167 40.961 12.614 61.524 18.418-.117 16.242 2.395 46.005-.601 60.518-5.45 26.404-24.543 56.516-28.597 82.333-2.482 15.81-.573 35.615-.536 52.011l-.276 96.986c33.846.341 67.693.446 101.54.312.587 20.865.538 42.298-.138 63.147-54.801.47-109.753-.518-164.578-.502l.694-158.968c-.013-20.202-2.34-62.23.663-79.586 4.466-25.819 23.95-50.082 28.69-75.929 2.859-15.592-3.094-46.357 1.615-58.74zm1775.41-150.955 141.6.05.04 39.559c-7.08 10.086-38.68 48.182-38.38 57.801 4.31 3.774 44.51 1.762 53.1 1.721-6.93 14.308-11.04 30.518-17 45.33l-36.8.011-.02 117.873h-39.98l-62.85-.053v-44.969h51.25v-72.851l-51.25-.046v-45.265l51.25-.03v-13.954c10.3-13.48 22.58-27.301 30.97-42.03h-82.22c-.04-14.34-.5-28.83.29-43.147zm-600.9 369.27c19.95-1.658 38.15.387 54.94 12.263 16.04 11.352 26.08 29.294 29.23 48.527 3.66 22.318.2 46.896-13.25 65.504-12.57 17.38-30.01 25.408-50.7 28.731-19.33 1.02-37.3-2.063-53.19-13.842-16.13-11.956-25.31-30.432-28.11-50.038-3.15-22.078.89-46.332 14.58-64.375 11.36-14.983 27.97-24.164 46.5-26.77zm20.37 121.855c10.68-3.942 18.02-10.048 22.82-20.444 6.27-13.564 6.63-31.023 1.44-44.983-3.43-9.212-9.58-17.24-18.66-21.482-6.74-3.152-14.98-3.843-22.27-2.386-10.71 3.887-18.21 9.93-23.09 20.316-6.37 13.548-6.71 31.059-1.57 45.046 3.5 9.507 9.88 17.815 19.33 22.006 7.23 3.2 14.36 3.188 22 1.927zm-285.32-119.96c23.21-.105 52.33-2.853 74.79 2.483 13.55 3.218 25.97 10.197 33.39 22.295 6.53 10.632 8.62 25.09 5.7 37.192-3.41 14.118-12.83 23.182-24.8 30.575l40.25 57.859h-28.92l-13.54-.018a2558.68 2558.68 0 0 0 -33.38-50.641l-19.09.06-.01 50.599h-35.64c.01-17.233-1.74-145.114 1.25-150.404zm34.39 69.695c13.97.203 25.59 1.326 38.05-6.227 3.64-4.627 6.3-10.738 5.66-16.775-.43-4.122-3.16-7.666-6.38-10.112-9.77-7.441-25.57-7.498-37.33-6.339zm982.79-69.7 27.41.004c17.14 23.479 32.99 48.164 49.35 72.21l48.82-72.214h26.71v150.409h-33.76v-87.493l-33.44 47.473h-17.72l-33.88-48.034-.03 88.036-33.46.018zm-408.27-1.906c12.6-1.262 25.04-1.058 37.2 2.893 16.85 5.47 27.08 15.91 34.94 31.41-9.3 6.547-19.91 11.887-29.81 17.495-1.36-2.471-2.75-5.032-4.44-7.293-5.03-6.714-12.22-11.605-20.64-12.706-9.61-1.259-19.82 1.24-27.53 7.166-9.64 7.413-14.58 19.17-15.98 30.992-1.59 13.463 1.06 28.405 9.76 39.142 6.84 8.444 16.45 13.004 27.18 14.04 9.91.956 18.38-1.122 26.12-7.517v-18.336h-26.49c-.33-10.181-.08-20.453-.11-30.644h61.31v62.685l-.82 1.162c-10.67 15.065-26.37 20.845-44 23.829-20.5 3.468-42.74-.565-59.77-12.794-15.83-11.369-25.78-29.298-28.89-48.377-3.6-22.075-.02-46.169 13.3-64.518 11.77-16.21 29.08-25.525 48.67-28.629zm-1060.938 1.911 34.268-.005v65.132c19.61-20.943 38.01-43.425 56.81-65.124l44.31-.008-56.36 60.422a3704.373 3704.373 0 0 1 37.87 54.696c8.51 11.49 16.44 23.529 24.62 35.264l-45.9.027-42.7-62.451a1619.615 1619.615 0 0 0 -18.65 20.58v41.871h-35.622l-.073-109.681c-.003-9.298-1.474-31.121.227-38.742.115-.516.901-1.487 1.2-1.981zm220.068-.001 34.95.001-.18 59.068c-.02 11.529-1.09 24.304 1.21 35.602 1.4 6.847 4.11 13.487 9.09 18.534 5.37 5.449 12.32 7.717 19.85 7.779 7.83.064 15.17-2.069 20.8-7.738 4.89-4.926 7.58-11.468 9.01-18.162 2.72-12.694 1.66-26.756 1.65-39.701l-.14-55.387 35.64.005v34.007c.05 23.179 3.2 59.73-4.1 80.721a55.182 55.182 0 0 1 -28.79 31.896c-18.43 8.729-42.46 9.238-61.55 2.349-14.58-5.265-26.06-15.519-32.58-29.623-3.15-6.807-4.62-14.01-5.3-21.449-.94-10.254-1.16-93.576.44-97.902zm1065.02 0 31.02-.003c5.55 17.441 13.77 34.712 20.66 51.691l40.03 98.717h-37.83c-2.73-10.052-7.24-20.307-11.3-29.9l-11.23-.12h-44.98c-3.56 10.012-6.77 20.364-11.22 30.011l-35.01-.006c13.67-35.787 28.06-71.333 42.11-106.977 4.26-10.817 11.78-34.831 17.75-43.413zm-2.46 90.37h17.81l16.01-.003c-4.41-12.009-10.83-34.406-17.27-44.262-6.53 14.148-11.03 29.663-16.55 44.265zm679.49-92.248c14.45-1.743 29.42-.727 42.61 5.921 12.33 6.207 18.99 15.522 23.26 28.363-9.63 5.434-19.3 10.773-29.04 16.017-2.24-4.556-4.75-9.111-8.7-12.419a28.818 28.818 0 0 0 -21.46-6.485c-4.75.481-10.29 2.149-13.37 6.041-1.66 2.094-2.32 4.678-1.92 7.315 2.54 16.512 44.89 20.81 60.39 32.014 7.92 5.731 12.88 13.775 14.34 23.482 1.61 10.671.55 23.903-6.06 32.72-11.84 15.802-27.22 19.681-45.98 22.425-11.62.229-23.16-1.211-34.04-5.423-16.29-6.304-25.37-16.29-32.29-32.027a991.58 991.58 0 0 1 28.64-16.224c3.01 4.846 5.8 9.451 10.3 13.09a38.387 38.387 0 0 0 28.83 8.407c4.4-.506 9.3-1.845 12.07-5.596 1.76-2.379 2.14-5.414 1.66-8.272-3.1-18.281-42.65-19.328-59.71-31.708-8.06-5.844-12.95-14.087-14.46-23.873-1.78-11.531.12-24.22 7.26-33.702 8.95-11.868 23.33-18.047 37.67-20.066zm-247.06 1.879 100.31-.005v30.975l-65.68.025v29.033l58.79.013v29.977c-8.84.034-53.65-1.747-58.4 1.406l-.39 2.833v25.813l68.18.013v30.312l-103.82.009c-.01-16.523-1.34-146.397 1.01-150.404zm-1159.53-270.166 57.83.049v148.144l-14.8 5.488c-13.55 6.23-28.84 11.409-43.03 16.086z"/><path d="m2302.81 233.772c18.07-.826 36.54-.106 54.65-.113-2.85 7.352-5.11 15.005-7.59 22.493h88.27c-7.08 14.522-12.25 30.55-18.1 45.639h-84.96c-2.43 9.468-5.51 18.803-8.37 28.149h-54.51l19.81-61.509c3.69-11.435 7.98-22.986 10.8-34.659zm-246.19 211.555 57.51.042v148.228c-4.77 1.858-9.65 3.512-14.48 5.24-13.79 6.348-28.83 11.095-43.03 16.64zm-535.03-105.999 57.83.057v75.517c-19.18.695-38.62.083-57.83.093zm535.62.035 56.92.028c.16 25.202.1 50.404-.16 75.604h-57.34l-.15-49.036c-.01-8.587-.82-18.166.73-26.596zm-535.62-99.482h57.83v72.457c-19.19.664-38.62.079-57.83.088zm535.04.144c18.97-1.011 38.48-.144 57.5-.144v72.409c-18.96 1.032-38.49.137-57.5.136zm-1545.101-127.075c8.213 1.49 17.321 5.683 25.315 8.401 18.178 6.184 36.541 12.078 54.518 18.816-6.432 10.874-12.551 22.253-19.784 32.603-26.906-9.289-54.224-17.434-81.168-26.645zm2395.051 124.221c18.34-.668 36.93-.083 55.29-.094 1.99 18.844 5.58 39.359 10.12 57.765-18.36.513-36.88.065-55.26.084-3.42-19.216-6.12-38.662-10.15-57.755zm-2289.302-230.657c1.825.663 2.025.729 3.109 2.323-2.313 8.992-10.64 21.364-15.207 30.185-13.315 25.723-26.022 52.15-40.437 77.25-2.386.446-3.941-.65-6.142-1.561-3.103-1.227-5.589-1.704-7.577-4.461 6.22-12.09 14.823-23.75 22.186-35.223zm-617.278 718.189c14.443-4.018 48-10.403 62.866-11.592v92.1h128.853l-.339 62.591-191.38-.351z"/></svg>